<?xml version="1.0" encoding="UTF-8" standalone="no"?>
<svg
   xmlns:dc="http://purl.org/dc/elements/1.1/"
   xmlns:cc="http://creativecommons.org/ns#"
   xmlns:rdf="http://www.w3.org/1999/02/22-rdf-syntax-ns#"
   xmlns:svg="http://www.w3.org/2000/svg"
   xmlns="http://www.w3.org/2000/svg"
   viewBox="0 0 3195.96 2002.7067"
   height="2002.7067"
   width="3195.96"
   xml:space="preserve"
   id="svg2"
   version="1.1"><metadata
     id="metadata8"><rdf:RDF><cc:Work
         rdf:about=""><dc:format>image/svg+xml</dc:format><dc:type
           rdf:resource="http://purl.org/dc/dcmitype/StillImage" /></cc:Work></rdf:RDF></metadata><defs
     id="defs6" /><g
     transform="matrix(1.3333333,0,0,-1.3333333,0,2002.7067)"
     id="g10"><g
       transform="scale(0.1)"
       id="g12"><path
         id="path14"
         style="fill:#100f0d;fill-opacity:1;fill-rule:nonzero;stroke:none"
         d="m 6419.62,4364.1 c 9.46,38.1 14.24,74.8 14.24,110.4 0,35.6 2.34,72.4 7.12,110.4 0,-9.5 -15.47,-27.3 -46.28,-53.4 -30.93,-26.1 -66.52,-55.8 -106.8,-89 -40.37,-33.2 -79.53,-64.1 -117.46,-92.6 -38.04,-28.5 -61.74,-49.8 -71.2,-64.1 -56.96,-75.8 -106.79,-154.2 -149.51,-234.9 -42.71,-80.7 -97.34,-154.2 -163.74,-220.7 -14.24,-18.9 -30.93,-53.4 -49.84,-103.3 -19.03,-49.8 -33.26,-103.2 -42.72,-160.1 -9.57,-57 -14.24,-111.5 -14.24,-163.8 0,-52.2 9.46,-85.4 28.47,-99.7 v -7.1 7.1 l 21.36,-64 c 14.24,-23.7 28.48,-47.4 42.73,-71.2 14.24,-23.7 40.27,-30.8 78.31,-21.4 9.46,0 23.69,-4.7 42.71,-14.2 33.16,-9.5 67.64,-5.9 103.24,10.6 35.6,16.7 62.85,39.2 81.87,67.7 66.42,123.5 116.26,252.7 149.51,388 33.16,135.3 75.87,269.4 128.16,402.3 23.69,56.9 37.93,116.3 42.71,177.9 4.67,61.8 11.79,123.5 21.36,185.1 z m 2313.86,3645.26 c 33.15,-52.29 61.63,-106.79 85.43,-163.75 23.7,-56.96 40.27,-116.36 49.84,-177.99 0,-19.01 -4.78,-38.04 -14.24,-56.95 -4.79,-14.25 -20.25,-64.09 -46.28,-149.52 -26.14,-85.43 -54.62,-179.2 -85.43,-281.22 -30.93,-102.12 -59.41,-195.78 -85.44,-281.22 -26.14,-85.44 -41.6,-135.27 -46.27,-149.51 -33.26,-118.7 -79.54,-233.83 -138.84,-345.3 -59.4,-111.57 -105.67,-226.72 -138.83,-345.3 -4.78,-14.24 -11.9,-23.8 -21.36,-28.47 -9.57,-4.79 -16.68,-14.24 -21.35,-28.49 0,-23.8 -8.35,-49.84 -24.92,-78.31 -16.69,-28.47 -29.71,-54.62 -39.15,-78.31 -33.27,-85.44 -75.99,-171.99 -128.16,-259.87 -52.28,-87.77 -104.46,-169.64 -156.63,-245.62 -23.81,-37.93 -52.29,-77.09 -85.43,-117.48 -33.27,-40.27 -59.41,-84.2 -78.32,-131.7 -9.57,-18.92 -20.25,-32.04 -32.04,-39.16 -11.9,-7.12 -22.58,-20.14 -32.04,-39.19 -4.78,-18.9 -11.9,-29.6 -21.36,-32 -9.56,-2.3 -19.02,-8.2 -28.48,-17.8 -4.78,-9.5 -14.23,-21.4 -28.47,-35.6 -4.79,-9.5 -7.13,-16.6 -7.13,-21.4 0,-4.6 -2.44,-11.8 -7.11,-21.3 -23.81,-66.4 -45.16,-131.7 -64.08,-195.8 -19.02,-64.1 -30.92,-129.3 -35.59,-195.8 0,-23.7 -2.45,-47.4 -7.12,-71.2 -4.79,-23.7 -11.91,-47.4 -21.37,-71.2 -14.23,-75.9 -29.69,-151.8 -46.27,-227.8 -16.69,-75.9 -32.04,-151.9 -46.27,-227.9 -4.79,0 -7.13,-2.3 -7.13,-7.1 9.46,-56.9 1.12,-109.1 -24.92,-156.6 -26.14,-47.4 -43.94,-97.2 -53.39,-149.5 v -28.5 c -66.53,-61.6 -112.81,-138.8 -138.83,-231.4 -26.15,-92.5 -70.08,-174.4 -131.72,-245.6 -61.73,-66.4 -128.14,-126.9 -199.34,-181.5 -71.2,-54.5 -142.4,-108 -213.59,-160.2 -52.29,-38 -99.68,-65.2 -142.39,-81.9 -42.72,-16.6 -84.32,-27.3 -124.59,-32 -40.38,-4.7 -83.1,-8.3 -128.15,-10.7 -45.17,-2.4 -96.12,-8.3 -153.08,-17.8 9.46,4.8 21.36,7.1 35.6,7.1 14.24,0 26.03,2.4 35.6,7.1 -52.29,0 -97.34,2.5 -135.27,7.1 -38.04,4.8 -73.64,14.3 -106.8,28.5 -33.25,14.2 -65.3,32 -96.11,53.4 -30.92,21.4 -67.64,48.7 -110.35,81.9 -14.24,9.5 -26.15,22.6 -35.6,39.2 -9.56,16.6 -21.36,32 -35.6,46.2 -14.24,19 -30.93,34.5 -49.83,46.3 -19.03,11.9 -33.27,29.7 -42.73,53.4 -14.24,23.8 -26.13,51.1 -35.59,81.9 -9.56,30.9 -19.02,60.5 -28.48,89 -4.78,9.5 -8.34,21.3 -10.68,35.6 -2.44,14.2 -8.34,26.1 -17.8,35.5 -9.56,14.3 -16.69,31 -21.36,49.9 -4.78,19 -4.78,38 0,57 4.67,52.2 4.67,103.2 0,153 -4.78,49.9 2.34,100.9 21.36,153.1 9.46,23.8 20.14,47.5 32.05,71.2 11.78,23.8 22.46,47.5 32.03,71.2 9.46,9.5 16.57,19 21.36,28.5 4.67,9.5 11.8,19 21.36,28.4 14.24,38.1 29.59,76 46.27,114 16.58,38 39.16,73.6 67.64,106.7 14.24,23.8 26.03,47.5 35.6,71.2 9.45,57 28.47,105.7 56.95,146 28.49,40.4 59.3,81.9 92.56,124.6 23.7,28.5 47.38,54.6 71.2,78.3 23.69,23.8 47.38,49.8 71.19,78.3 42.72,52.3 90.1,95 142.39,128.2 52.17,33.2 104.35,68.8 156.63,106.8 23.69,23.8 48.61,45.1 74.76,64 26.02,19.1 53.4,38.1 81.87,57 33.16,14.2 54.51,34.5 64.07,60.5 9.46,26.2 18.92,53.4 28.49,81.89 28.47,113.9 49.83,230.27 64.07,348.85 9.45,66.53 14.24,134.16 14.24,202.91 0,68.86 2.33,136.5 7.12,202.91 9.45,56.96 17.8,112.69 24.92,167.31 7.12,54.51 15.35,110.35 24.92,167.31 14.24,90.11 26.02,180.33 35.59,270.54 9.46,90.11 11.8,182.67 7.12,277.67 l -14.23,14.23 c -23.81,-28.48 -43.95,-55.84 -60.52,-81.87 -16.69,-26.14 -36.82,-53.39 -60.52,-81.88 l -42.71,28.49 c -23.81,-28.49 -48.74,-59.41 -74.76,-92.56 -26.15,-33.27 -55.85,-61.75 -89,-85.44 -95,-71.19 -187.55,-135.27 -277.66,-192.22 -33.26,-19.03 -65.29,-34.49 -96.11,-46.28 -30.93,-11.9 -65.3,-15.46 -103.23,-10.68 -14.24,0 -23.81,-2.45 -28.48,-7.12 -80.76,-38.05 -164.98,-55.85 -252.75,-53.4 -87.88,2.33 -174.43,8.24 -259.86,17.8 -23.8,4.68 -43.95,7.12 -60.52,7.12 -16.68,0 -36.82,2.33 -60.52,7.12 -61.73,9.46 -116.35,27.26 -163.75,53.39 -47.5,26.04 -97.33,55.74 -149.5,89 -99.67,71.2 -182.78,163.75 -249.19,277.67 -9.56,14.23 -17.8,29.58 -24.91,46.27 -7.13,16.58 -22.59,24.92 -46.28,24.92 4.67,0 0,7.12 -14.24,21.35 -19.02,23.7 -34.49,49.84 -46.28,78.32 -11.9,28.48 -29.7,52.18 -53.39,71.2 -19.03,61.63 -33.27,110.35 -42.73,145.95 -9.56,35.6 -20.24,68.75 -32.03,99.67 -11.79,30.82 -17.8,50.95 -17.8,60.52 -23.7,75.87 -34.37,149.51 -32.03,220.71 2.44,71.19 -1.12,147.06 -10.69,227.83 -4.67,52.17 -2.33,104.34 7.12,156.62 9.56,52.17 33.26,102.01 71.19,149.51 4.68,4.67 7.13,14.24 7.13,28.48 4.67,71.19 21.35,136.38 49.84,195.78 28.47,59.3 52.17,122.15 71.19,188.68 9.46,42.72 26.03,82.98 49.84,121.03 23.69,37.93 49.84,75.87 78.31,113.92 0,4.66 4.67,-7.13 14.24,-35.6 9.46,14.23 16.57,27.25 21.36,39.15 4.67,11.8 11.78,22.48 21.35,32.04 l 14.25,14.24 c 28.47,56.95 65.19,116.25 110.35,177.99 45.05,61.63 93.67,121.03 145.95,177.99 52.17,56.95 109.13,106.79 170.87,149.51 61.63,42.71 121.03,75.86 177.99,99.67 52.17,23.69 106.79,45.05 163.75,64.08 56.95,18.91 116.24,30.81 177.99,35.6 33.15,4.67 65.18,16.57 96.11,35.6 30.81,18.91 65.19,33.14 103.23,42.71 37.94,9.46 74.75,14.24 110.35,14.24 35.6,0 72.32,0 110.36,0 61.63,0 122.14,-8.35 181.55,-24.92 59.3,-16.68 119.8,-20.25 181.55,-10.68 23.69,0 45.05,-2.44 64.07,-7.12 18.91,-4.78 37.94,-4.78 56.96,0 23.69,0 46.28,-3.56 67.64,-10.68 21.36,-7.12 43.83,-13.12 67.63,-17.8 23.7,-4.78 41.5,-15.46 53.4,-32.03 11.79,-16.69 22.47,-32.04 32.03,-46.28 14.24,-19.03 28.49,-34.49 42.72,-46.28 14.24,-11.9 33.15,-22.59 56.96,-32.03 18.91,-4.79 34.37,-11.91 46.28,-21.37 11.79,-9.56 13.01,-28.47 3.56,-56.95 -4.78,-14.24 -2.45,-30.93 7.12,-49.84 9.46,-19.02 16.57,-38.04 21.36,-56.95 18.91,-137.73 7.11,-275.33 -35.6,-412.94 -14.24,-52.28 -33.26,-100.9 -56.96,-145.95 -23.8,-45.16 -59.4,-86.66 -106.79,-124.59 0,9.45 -1.23,18.91 -3.56,28.48 -2.45,9.45 -6.01,21.36 -10.69,35.59 -9.56,-19.02 -16.68,-34.48 -21.35,-46.27 -4.78,-11.9 -11.9,-24.92 -21.36,-39.16 -9.57,9.45 -17.8,15.35 -24.92,17.8 -7.12,2.33 -15.46,8.24 -24.91,17.8 -4.79,-9.56 -9.57,-16.69 -14.24,-21.36 -4.79,-4.79 -11.9,-11.9 -21.37,-21.36 v 106.79 c -9.56,0 -20.24,1.12 -32.04,3.56 -11.9,2.34 -24.91,3.56 -39.15,3.56 v 21.36 c 14.24,37.93 27.25,73.53 39.15,106.8 11.8,33.14 24.93,68.74 39.17,106.78 18.91,37.94 32.03,77.1 39.15,117.48 7.12,40.27 3.56,84.21 -10.67,131.72 -19.03,-4.79 -38.05,-6.01 -56.96,-3.57 -19.02,2.34 -38.04,-1.22 -56.96,-10.68 -33.26,-14.24 -64.08,-30.92 -92.55,-49.84 -28.48,-19.01 -54.62,-40.38 -78.31,-64.07 -23.81,-14.24 -42.73,-30.93 -56.97,-49.84 -14.24,-19.01 -28.47,-40.38 -42.71,-64.07 -38.05,-52.28 -77.2,-103.24 -117.48,-153.07 -40.37,-49.84 -72.42,-105.68 -96.1,-167.31 -33.27,-80.77 -65.31,-162.64 -96.12,-245.63 -30.93,-83.1 -58.18,-167.3 -81.88,-252.74 -19.02,-71.2 -38.04,-149.51 -56.95,-234.94 -19.03,-85.44 -34.5,-173.32 -46.28,-263.44 -11.9,-90.21 -16.69,-177.98 -14.24,-263.41 2.34,-85.44 13.02,-163.75 32.04,-234.95 4.67,-19.02 7.12,-45.17 7.12,-78.31 4.67,-52.29 28.48,-83.1 71.2,-92.56 128.15,-28.48 244.4,9.46 348.85,113.92 52.18,52.17 102.02,104.34 149.52,156.62 47.38,52.17 94.88,106.8 142.38,163.75 23.7,28.48 43.84,59.29 60.52,92.56 16.57,33.15 36.71,66.41 60.51,99.67 14.24,23.7 29.59,47.4 46.28,71.2 16.58,23.7 32.04,47.38 46.28,71.2 9.45,14.23 18.91,35.59 28.48,64.07 9.46,33.15 15.35,66.41 17.8,99.68 2.33,33.14 8.23,66.41 17.8,99.67 14.24,99.67 47.38,185.11 99.67,256.3 14.24,18.91 30.81,47.39 49.84,85.43 33.15,9.46 66.41,13.01 99.67,10.68 33.15,-2.44 61.63,8.24 85.44,32.04 9.46,-14.24 26.03,-23.8 49.83,-28.47 23.7,0 37.94,4.67 42.72,14.23 9.45,4.68 15.35,11.8 17.8,21.37 2.33,9.44 8.23,18.91 17.8,28.47 9.46,-19.03 17.8,-38.04 24.91,-56.96 7.13,-19.01 15.36,-40.38 24.92,-64.07 4.67,23.69 8.24,42.71 10.68,56.96 2.34,14.23 5.9,30.81 10.68,49.83 9.46,-14.23 17.8,-27.36 24.92,-39.15 7.12,-11.92 15.35,-27.37 24.92,-46.28 v 42.71 c 4.67,9.46 8.23,20.14 10.68,32.05 2.34,11.79 5.89,17.79 10.68,17.79 33.14,0 52.17,-4.78 56.95,-14.24 23.7,-28.48 48.62,-49.83 74.75,-64.07 26.04,-14.24 53.41,-30.93 81.88,-49.84 104.35,-61.74 163.75,-156.63 177.99,-284.78 9.46,-61.74 14.25,-122.26 14.25,-181.55 0,-59.41 -7.13,-119.93 -21.37,-181.56 0,-9.56 -1.22,-17.79 -3.55,-24.91 -2.45,-7.12 -1.23,-15.46 3.55,-24.92 18.91,-56.95 22.47,-113.91 10.69,-170.86 -11.91,-56.96 -15.47,-113.92 -10.69,-170.87 0,-4.79 -1.22,-8.35 -3.55,-10.68 -2.45,-2.46 -3.57,-6.01 -3.57,-10.69 14.24,-33.26 21.36,-65.29 21.36,-96.11 0,-30.92 -2.44,-60.52 -7.12,-88.99 l -14.24,-28.48 c -9.57,-33.26 -15.46,-66.52 -17.79,-99.67 -2.46,-33.26 -1.22,-68.87 3.56,-106.8 0,-14.24 -2.45,-23.8 -7.12,-28.48 -52.29,-23.8 -71.2,-66.52 -56.96,-128.15 23.69,-109.24 29.59,-216.03 17.8,-320.38 -11.91,-104.35 -22.59,-211.13 -32.04,-320.37 h -7.12 c -9.57,-18.92 -14.24,-35.61 -14.24,-49.84 14.24,-52.18 14.24,-104.35 0,-156.64 23.7,28.48 45.06,60.52 64.08,96.13 18.91,35.59 40.26,72.41 64.07,110.35 42.72,71.19 78.32,138.83 106.79,202.9 28.48,64.07 61.64,129.26 99.68,195.79 9.46,23.69 18.91,43.83 28.47,60.52 9.46,16.57 18.92,34.36 28.49,53.39 9.45,23.7 16.57,43.83 21.36,60.52 4.67,16.57 11.78,34.37 21.35,53.39 9.46,28.48 23.7,55.74 42.72,81.88 18.92,26.03 33.15,53.39 42.72,81.88 9.46,23.68 16.57,49.83 21.36,78.31 4.67,28.47 11.79,54.51 21.36,78.31 9.45,9.46 17.8,17.8 24.92,24.92 7.12,7.12 10.67,17.8 10.67,32.04 -4.78,23.7 -4.78,36.71 0,39.15 4.68,2.34 14.25,8.23 28.49,17.8 4.66,9.46 5.89,18.92 3.55,28.48 -2.44,9.46 -3.55,18.92 -3.55,28.48 9.44,14.24 15.35,28.48 17.79,42.72 2.33,14.24 8.24,28.48 17.8,42.72 4.67,14.23 21.35,66.41 49.84,156.63 28.48,90.11 59.29,187.44 92.55,291.9 33.15,104.34 62.85,201.68 88.99,291.9 26.03,90.11 41.5,142.39 46.28,156.63 9.46,9.45 17.81,20.14 24.92,32.04 7.12,11.79 13.02,24.91 17.8,39.15 9.46,37.94 14.24,66.41 14.24,85.44 4.67,23.7 10.68,49.84 17.8,78.31 7.12,28.48 15.35,54.52 24.92,78.32" /><path
         id="path16"
         style="fill:#100f0d;fill-opacity:1;fill-rule:nonzero;stroke:none"
         d="m 9637.61,8728.43 c -23.8,-47.5 -46.28,-93.77 -67.63,-138.82 -21.36,-45.17 -43.94,-93.78 -67.64,-145.96 -14.24,-38.04 -28.47,-72.42 -42.71,-103.23 -14.24,-30.93 -26.14,-65.3 -35.6,-103.24 -9.57,-47.5 -15.46,-96.11 -17.81,-145.95 -2.44,-49.84 -8.33,-100.9 -17.79,-153.06 28.47,18.9 54.51,35.59 78.31,49.83 23.7,14.24 47.4,26.04 71.2,35.6 66.41,28.48 128.16,64.07 185.11,106.8 56.96,42.71 111.47,85.43 163.75,128.15 61.63,52.17 122.1,107.9 181.5,167.31 59.3,59.28 93.7,129.26 103.3,210.03 23.7,33.14 37.9,68.74 42.7,106.78 4.7,37.94 9.4,75.87 14.2,113.91 14.3,99.68 -28.4,173.21 -128.1,220.71 -80.8,28.49 -144.85,14.24 -192.24,-42.71 -4.78,-9.57 -14.24,-21.36 -28.48,-35.6 -52.29,-38.04 -98.56,-79.54 -138.83,-124.59 -40.39,-45.17 -74.75,-93.78 -103.24,-145.96 z m 1623.29,-719.07 c 33.1,-52.29 61.6,-106.79 85.4,-163.75 23.7,-56.96 40.3,-113.91 49.9,-170.87 0,-14.23 -4.8,-35.6 -14.3,-64.07 -33.2,-80.77 -63,-164.98 -89,-252.75 -26.1,-87.88 -51,-176.87 -74.7,-266.98 -4.8,-19.02 -17.8,-52.29 -39.2,-99.68 -21.4,-47.5 -46.3,-99.67 -74.7,-156.62 -28.5,-56.96 -59.5,-115.15 -92.6,-174.43 -33.3,-59.41 -66.5,-108.02 -99.7,-145.95 -61.7,-75.98 -130.6,-150.74 -206.4,-224.27 -76,-73.64 -161.5,-138.84 -256.4,-195.79 -85.4,-52.29 -180.4,-93.78 -284.7,-124.59 -104.5,-30.93 -206.51,-46.28 -306.18,-46.28 -66.53,4.67 -123.48,3.56 -170.87,-3.56 -47.5,-7.12 -104.45,-8.34 -170.87,-3.56 -52.28,4.68 -115.14,15.35 -188.67,32.04 -73.64,16.57 -136.49,29.59 -188.66,39.15 -71.2,33.16 -137.73,52.18 -199.35,56.96 -23.8,14.24 -47.5,30.82 -71.2,49.84 -23.8,18.91 -42.71,40.27 -56.96,64.07 -14.24,23.7 -34.48,43.83 -60.52,60.52 -26.13,16.58 -51.05,34.38 -74.75,53.39 -38.04,23.7 -72.42,50.96 -103.23,81.88 -30.93,30.82 -51.06,67.64 -60.52,110.36 -4.78,9.45 -11.9,20.13 -21.36,32.03 -9.56,11.79 -19.02,22.48 -28.47,32.04 -38.05,42.72 -67.64,87.77 -88.99,135.28 -21.37,47.39 -41.62,97.22 -60.52,149.5 -19.03,42.73 -35.6,86.56 -49.84,131.72 -14.24,45.05 -30.93,88.99 -49.83,131.71 -18.92,47.39 -29.59,94.89 -32.05,142.39 -2.33,47.39 -1.1,94.89 3.57,142.39 0,37.93 1.22,77.1 3.55,117.47 2.45,40.28 3.56,79.43 3.56,117.47 0,18.92 -1.11,36.72 -3.56,53.41 -2.33,16.57 -3.55,34.36 -3.55,53.39 0,23.7 0,46.28 0,67.64 0,21.35 4.78,43.82 14.24,67.63 9.56,47.4 20.12,94.9 32.03,142.4 11.79,47.38 27.26,97.22 46.28,149.51 37.93,99.67 77.09,198.12 117.47,295.46 40.28,97.22 98.46,191 174.43,281.21 28.48,33.16 53.4,66.42 74.76,99.68 21.36,33.15 43.83,68.75 67.63,106.79 23.7,37.94 52.17,69.98 85.43,96.12 33.16,26.03 66.42,53.39 99.68,81.87 37.93,33.15 77.09,62.85 117.48,89 40.27,26.02 81.86,53.39 124.59,81.87 9.46,9.46 28.47,18.91 56.95,28.48 56.96,18.91 115.03,37.93 174.43,56.95 59.29,18.92 119.81,35.6 181.55,49.84 23.69,9.46 50.95,11.8 81.88,7.13 30.81,-4.79 60.51,-4.79 88.99,0 109.13,14.24 227.83,9.45 355.95,-14.24 61.7,-14.25 118.6,-42.73 170.9,-85.44 52.2,-47.5 106.8,-87.89 163.7,-121.03 33.2,-28.48 55.8,-59.41 67.7,-92.56 11.8,-33.26 20.1,-68.85 24.9,-106.79 9.5,-80.76 9.5,-163.76 0,-249.18 0,-28.49 -7.1,-59.41 -21.4,-92.56 -23.8,-66.53 -52.2,-128.15 -85.4,-185.11 -33.3,-56.96 -68.9,-113.91 -106.8,-170.87 -23.8,-38.04 -51,-74.75 -81.9,-110.35 -30.9,-35.6 -65.3,-70.09 -103.2,-103.24 -38,-38.04 -76,-75.97 -113.91,-113.91 -38.04,-38.04 -83.1,-68.86 -135.27,-92.55 -56.96,-66.52 -124.59,-121.03 -202.91,-163.75 -78.32,-42.71 -153.07,-90.21 -224.27,-142.39 -9.56,-9.56 -21.35,-19.02 -35.59,-28.48 -14.24,-9.57 -30.93,-19.02 -49.83,-28.48 -19.03,-52.29 -23.82,-106.79 -14.25,-163.75 9.46,-56.95 21.36,-113.92 35.6,-170.86 l 21.36,-42.73 c -9.57,-19.01 -11.9,-38.04 -7.12,-56.95 14.24,-75.97 37.93,-140.06 71.19,-192.23 4.68,-9.57 7.13,-17.8 7.13,-24.92 0,-7.12 2.33,-15.46 7.11,-24.92 4.68,-47.5 13.02,-92.55 24.92,-135.27 11.8,-42.71 34.38,-87.88 67.64,-135.27 80.65,-113.91 163.75,-192.23 249.19,-234.95 85.43,-42.71 173.2,-59.4 263.41,-49.84 90.1,9.47 178,39.16 263.4,89 85.5,49.84 168.5,112.69 249.2,188.68 104.4,104.34 195.8,219.47 274.1,345.29 78.3,125.71 134.1,243.18 167.3,352.42 33.2,104.34 62.9,201.68 89,291.9 26.1,90.11 41.5,142.39 46.3,156.63 9.5,14.24 17.8,26.03 24.9,35.6 7.1,9.45 13,21.35 17.8,35.59 4.7,14.24 7.1,29.59 7.1,46.28 0,16.58 2.4,32.04 7.2,46.28 4.6,18.91 10.6,42.72 17.8,71.19 7.1,28.48 15.3,54.52 24.9,78.32" /><path
         id="path18"
         style="fill:#100f0d;fill-opacity:1;fill-rule:nonzero;stroke:none"
         d="m 12165,8728.43 c -23.8,-47.5 -46.3,-93.77 -67.7,-138.82 -21.3,-45.17 -43.9,-93.78 -67.6,-145.96 -14.2,-38.04 -28.5,-72.42 -42.7,-103.23 -14.3,-30.93 -26.2,-65.3 -35.6,-103.24 -9.6,-47.5 -15.5,-96.11 -17.8,-145.95 -2.5,-49.84 -8.4,-100.9 -17.8,-153.06 28.5,18.9 54.5,35.59 78.3,49.83 23.7,14.24 47.4,26.04 71.2,35.6 66.4,28.48 128.2,64.07 185.1,106.8 57,42.71 111.5,85.43 163.8,128.15 61.6,52.17 122.1,107.9 181.5,167.31 59.3,59.28 93.7,129.26 103.2,210.03 23.7,33.14 38,68.74 42.8,106.78 4.6,37.94 9.4,75.87 14.2,113.91 14.2,99.68 -28.5,173.21 -128.2,220.71 -80.7,28.49 -144.8,14.24 -192.2,-42.71 -4.8,-9.57 -14.2,-21.36 -28.5,-35.6 -52.3,-38.04 -98.5,-79.54 -138.8,-124.59 -40.4,-45.17 -74.7,-93.78 -103.2,-145.96 z m 1623.2,-719.07 c 33.2,-52.29 61.7,-106.79 85.5,-163.75 23.7,-56.96 40.2,-113.91 49.8,-170.87 0,-14.23 -4.8,-35.6 -14.2,-64.07 -33.3,-80.77 -63,-164.98 -89,-252.75 -26.2,-87.88 -51.1,-176.87 -74.8,-266.98 -4.8,-19.02 -17.8,-52.29 -39.1,-99.68 -21.4,-47.5 -46.3,-99.67 -74.8,-156.62 -28.5,-56.96 -59.4,-115.15 -92.6,-174.43 -33.2,-59.41 -66.5,-108.02 -99.6,-145.95 -61.8,-75.98 -130.6,-150.74 -206.5,-224.27 -76,-73.64 -161.4,-138.84 -256.3,-195.79 -85.4,-52.29 -180.4,-93.78 -284.8,-124.59 -104.4,-30.93 -206.4,-46.28 -306.1,-46.28 -66.5,4.67 -123.5,3.56 -170.9,-3.56 -47.5,-7.12 -104.5,-8.34 -170.9,-3.56 -52.3,4.68 -115.1,15.35 -188.6,32.04 -73.7,16.57 -136.5,29.59 -188.7,39.15 -71.2,33.16 -137.7,52.18 -199.3,56.96 -23.9,14.24 -47.6,30.82 -71.3,49.84 -23.8,18.91 -42.7,40.27 -56.9,64.07 -14.2,23.7 -34.5,43.83 -60.5,60.52 -26.2,16.58 -51.1,34.38 -74.8,53.39 -38,23.7 -72.4,50.96 -103.2,81.88 -30.9,30.82 -51.1,67.64 -60.5,110.36 -4.8,9.45 -11.9,20.13 -21.4,32.03 -9.6,11.79 -19,22.48 -28.5,32.04 -38,42.72 -67.6,87.77 -89,135.28 -21.3,47.39 -41.6,97.22 -60.5,149.5 -19,42.73 -35.6,86.56 -49.8,131.72 -14.2,45.05 -30.9,88.99 -49.9,131.71 -18.9,47.39 -29.5,94.89 -32,142.39 -2.3,47.39 -1.1,94.89 3.6,142.39 0,37.93 1.2,77.1 3.5,117.47 2.5,40.28 3.6,79.43 3.6,117.47 0,18.92 -1.1,36.72 -3.6,53.41 -2.3,16.57 -3.5,34.36 -3.5,53.39 0,23.7 0,46.28 0,67.64 0,21.35 4.8,43.82 14.2,67.63 9.6,47.4 20.1,94.9 32,142.4 11.8,47.38 27.3,97.22 46.3,149.51 38,99.67 77.1,198.12 117.5,295.46 40.3,97.22 98.5,191 174.4,281.21 28.5,33.16 53.4,66.42 74.8,99.68 21.3,33.15 43.8,68.75 67.6,106.79 23.7,37.94 52.2,69.98 85.5,96.12 33.1,26.03 66.4,53.39 99.6,81.87 38,33.15 77.1,62.85 117.5,89 40.3,26.02 81.9,53.39 124.6,81.87 9.5,9.46 28.5,18.91 57,28.48 56.9,18.91 115,37.93 174.4,56.95 59.3,18.92 119.8,35.6 181.5,49.84 23.7,9.46 51,11.8 81.9,7.13 30.8,-4.79 60.5,-4.79 89,0 109.1,14.24 227.8,9.45 356,-14.24 61.6,-14.25 118.6,-42.73 170.8,-85.44 52.2,-47.5 106.9,-87.89 163.8,-121.03 33.2,-28.48 55.7,-59.41 67.6,-92.56 11.8,-33.26 20.2,-68.85 25,-106.79 9.4,-80.76 9.4,-163.76 0,-249.18 0,-28.49 -7.2,-59.41 -21.4,-92.56 -23.8,-66.53 -52.3,-128.15 -85.4,-185.11 -33.3,-56.96 -68.9,-113.91 -106.8,-170.87 -23.8,-38.04 -51.1,-74.75 -81.9,-110.35 -30.9,-35.6 -65.3,-70.09 -103.2,-103.24 -38.1,-38.04 -76,-75.97 -114,-113.91 -38,-38.04 -83,-68.86 -135.2,-92.55 -57,-66.52 -124.6,-121.03 -202.9,-163.75 -78.3,-42.71 -153.1,-90.21 -224.3,-142.39 -9.6,-9.56 -21.4,-19.02 -35.6,-28.48 -14.2,-9.57 -30.9,-19.02 -49.8,-28.48 -19.1,-52.29 -23.8,-106.79 -14.3,-163.75 9.5,-56.95 21.4,-113.92 35.6,-170.86 l 21.4,-42.73 c -9.6,-19.01 -11.9,-38.04 -7.1,-56.95 14.2,-75.97 37.9,-140.06 71.2,-192.23 4.6,-9.57 7.1,-17.8 7.1,-24.92 0,-7.12 2.3,-15.46 7.1,-24.92 4.7,-47.5 13,-92.55 24.9,-135.27 11.8,-42.71 34.4,-87.88 67.7,-135.27 80.6,-113.91 163.7,-192.23 249.1,-234.95 85.5,-42.71 173.2,-59.4 263.5,-49.84 90.1,9.47 177.9,39.16 263.4,89 85.4,49.84 168.4,112.69 249.2,188.68 104.3,104.34 195.8,219.47 274.1,345.29 78.3,125.71 134,243.18 167.3,352.42 33.1,104.34 62.8,201.68 89,291.9 26,90.11 41.5,142.39 46.3,156.63 9.4,14.24 17.8,26.03 24.9,35.6 7.1,9.45 13,21.35 17.8,35.59 4.6,14.24 7.1,29.59 7.1,46.28 0,16.58 2.3,32.04 7.1,46.28 4.7,18.91 10.7,42.72 17.8,71.19 7.1,28.48 15.4,54.52 24.9,78.32" /><g
         transform="scale(1.02279)"
         id="g20"><path
           id="path22"
           style="fill:#100f0d;fill-opacity:1;fill-rule:nonzero;stroke:none"
           d="m 14726.9,5011.72 c -37.2,120.73 -80.1,236.67 -128.8,348.03 -48.7,111.39 -105.6,220.48 -170.5,327.18 -14,23.16 -29.1,56.78 -45.3,100.93 -16.3,44.04 -34.8,88.1 -55.7,132.26 -20.8,44.04 -41.8,85.81 -62.6,125.3 -20.9,39.36 -43,66.12 -66.2,80.04 0,-88.21 1.1,-184.46 3.5,-288.87 2.3,-104.42 3.6,-211.12 3.6,-320.2 0,-108.98 0,-215.81 0,-320.2 0,-104.43 0,-200.68 0,-288.93 0,-194.86 2.2,-383.85 6.9,-567.27 4.5,-183.23 27.8,-370.07 69.6,-560.33 18.5,-78.9 27.8,-158.88 27.8,-240.23 0,-81.05 7,-161.13 20.9,-240.13 0,-9.18 10.5,-48.69 31.3,-118.3 20.9,-69.61 44.1,-140.3 69.6,-212.36 25.5,-71.86 51,-133.26 76.7,-184.39 25.4,-51.04 45.1,-57.98 59.1,-20.93 32.4,92.88 63.7,196.13 94,309.74 30.1,113.81 55.6,229.77 76.5,348.07 20.9,118.3 37.1,236.7 48.7,355.01 11.5,118.3 17.4,228.59 17.4,330.66 v 299.28 c 4.6,106.86 1.2,210.11 -10.5,309.84 -11.5,99.82 -33.6,198.35 -66,295.8 z m -570.8,1677.57 c 4.6,4.57 23.1,19.69 55.7,45.25 32.4,25.45 71.9,56.79 118.3,93.98 46.3,37.09 91.6,76.56 135.7,118.33 44.1,41.76 80.1,81.13 107.9,118.33 162.4,241.25 292.4,505.76 389.9,793.55 23.1,69.62 46.3,151.95 69.6,247.12 23.1,95.05 44,192.5 62.6,292.36 18.5,99.72 33.6,199.47 45.2,299.31 11.6,99.74 19.8,186.75 24.5,261.03 18.4,264.51 18.4,531.32 0,800.5 -4.7,41.78 -15.2,90.51 -31.4,146.18 -16.4,55.69 -38.3,102.07 -66.1,139.27 -27.9,37 -59.2,54.4 -94,52.2 -34.8,-2.4 -68.5,-45.3 -101,-128.81 -18.6,-37.21 -33.7,-76.58 -45.1,-118.33 -11.8,-41.78 -22.1,-85.93 -31.4,-132.27 -51.2,-236.67 -102.1,-464.1 -153.1,-682.17 -51.2,-218.18 -109.2,-445.49 -174.1,-682.16 -51.1,-162.5 -88.2,-312.16 -111.3,-448.98 -23.3,-136.95 -53.4,-288.89 -90.6,-455.94 -27.8,-129.98 -58.1,-258.75 -90.4,-386.33 -32.6,-127.7 -39.5,-251.8 -20.9,-372.42 z m 2053.5,967.57 c 4.6,0 20.9,-6.95 48.7,-20.88 27.8,-13.92 41.7,-25.57 41.7,-34.8 l -90.4,-243.64 c -27.9,-74.29 -59.2,-146.17 -94,-215.78 -34.8,-69.61 -70.9,-136.94 -107.9,-201.87 -23.3,-41.77 -48.7,-85.92 -76.6,-132.25 -27.9,-46.44 -55.7,-88.21 -83.5,-125.3 -14,-18.6 -26.8,-37.21 -38.3,-55.69 -11.7,-18.6 -26.8,-34.81 -45.3,-48.73 -27.7,-23.27 -55.6,-49.92 -83.5,-80.04 -27.8,-30.24 -58.1,-56.89 -90.5,-80.06 -13.9,-13.91 -31.3,-27.84 -52.2,-41.77 -20.9,-13.92 -38.3,-25.56 -52.1,-34.79 -102.2,-65.04 -206.6,-111.38 -313.3,-139.22 -92.9,-27.85 -190.4,-41.77 -292.3,-41.77 -32.6,0 -64,1.07 -94.1,3.48 -30.2,2.28 -59.1,5.76 -87,10.44 -41.8,9.24 -80,18.49 -114.8,27.85 -34.8,9.24 -70.8,18.48 -107.9,27.84 9.3,-13.93 11.5,-23.29 6.9,-27.84 4.6,-13.92 23.2,-38.29 55.7,-73.09 32.4,-34.81 67.2,-73.1 104.5,-114.87 37,-41.76 70.6,-81.24 100.9,-118.32 30.1,-37.2 49.8,-60.37 59.1,-69.62 27.9,-46.44 53.3,-84.72 76.7,-114.85 23.1,-30.13 44,-61.46 62.5,-93.98 18.5,-32.42 39.4,-69.6 62.7,-111.38 23.2,-41.76 48.7,-97.44 76.6,-167.05 32.4,-78.85 54.4,-157.7 66.2,-236.67 11.4,-78.85 28.8,-157.71 52.2,-236.7 9.2,-27.86 18.4,-55.63 27.7,-83.5 9.3,-27.86 18.5,-57.97 27.9,-90.53 9.3,-37.06 15.1,-76.56 17.4,-118.31 2.2,-41.75 12.7,-81.15 31.3,-118.3 9.3,-23.17 11.5,-46.35 7,-69.61 -4.7,-23.18 -7,-46.35 -7,-69.62 4.6,-83.49 5.8,-167.09 3.5,-250.59 -2.3,-83.59 -10.5,-167.09 -24.3,-250.58 -9.4,-74.22 -21,-146.17 -34.8,-215.79 -13.9,-69.61 -27.9,-139.22 -41.8,-208.84 -9.4,-64.92 -22.1,-128.76 -38.3,-191.44 -16.3,-62.67 -38.3,-121.82 -66.1,-177.45 l -62.7,-125.34 -20.9,-41.75 c -23.3,-74.21 -47.6,-146.17 -73,-215.78 -25.6,-69.62 -50,-139.23 -73.2,-208.84 -13.9,-23.18 -23.2,-37.16 -27.8,-41.75 l -27.8,-27.87 c -23.3,-27.86 -61.6,-49.86 -114.9,-66.09 -53.4,-16.23 -114.9,-27.87 -184.5,-34.81 -69.6,-7.04 -141.6,-10.46 -215.8,-10.46 -74.3,0 -146.1,2.35 -215.7,6.94 l -7,41.75 c -4.7,4.69 -11.6,6.94 -20.9,6.94 -74.2,32.56 -143.8,79 -208.9,139.23 -65,60.42 -125.2,126.52 -180.8,198.38 -55.8,72.06 -104.6,148.61 -146.3,229.76 -41.7,81.25 -76.6,156.63 -104.4,226.25 -78.9,185.66 -141.6,375.83 -187.9,570.79 -46.5,194.85 -83.5,389.81 -111.4,584.67 -27.9,199.55 -53.4,398.03 -76.6,595.14 -23.2,197.33 -39.5,395.72 -48.6,595.18 -14,222.75 -14,445.51 0,668.25 13.8,218.07 31.2,433.86 52.1,647.37 20.9,213.39 42.9,429.17 66.2,647.36 32.3,278.44 74.2,554.47 125.2,828.34 51,273.77 120.7,542.96 208.8,807.47 9.3,37.09 21,74.18 34.9,111.37 13.9,37.1 25.5,74.18 34.8,111.37 41.7,125.31 92.7,254.08 153.2,386.34 60.2,132.25 133.2,254.07 219.2,365.44 85.8,111.4 185.5,206.5 299.3,285.4 113.7,78.9 242.4,125.3 386.3,139.2 37.1,9.3 77.7,12.8 121.9,10.5 44,-2.4 87,-5.9 128.7,-10.5 51.1,-9.3 92.8,-16.3 125.4,-20.9 32.3,-4.6 64.8,-10.4 97.4,-17.4 32.4,-6.9 55.7,-12.8 69.6,-17.4 69.6,-27.8 125.3,-66.1 167.1,-114.8 41.7,-48.7 74.2,-105.6 97.4,-170.6 23.2,-65 40.5,-135.7 52.2,-212.27 11.5,-76.56 22,-159.01 31.3,-247.1 23.2,-153.14 31.3,-304.01 24.4,-452.47 -7,-148.56 -22.1,-297.04 -45.3,-445.5 -4.6,-18.58 -6.9,-36 -6.9,-52.2 0,-16.32 -2.4,-31.33 -7,-45.25 -23.2,-143.9 -44.2,-273.88 -62.6,-389.81 -18.6,-116.06 -43,-229.71 -73.1,-341.08 -30.3,-111.37 -69.6,-228.63 -118.4,-351.53 -48.7,-123.01 -112.5,-263.42 -191.4,-421.13 -13.9,-18.61 -27.8,-37.2 -41.8,-55.69 -13.8,-18.6 -27.8,-39.48 -41.7,-62.65 -37.2,-46.44 -74.3,-89.41 -111.4,-128.78 -37.1,-39.48 -81.2,-82.45 -132.3,-128.77 -18.5,-18.6 -53.3,-52.21 -104.4,-100.94 -51.1,-48.73 -99.8,-98.65 -146.1,-149.65 46.3,-23.28 98.5,-44.16 156.6,-62.65 58,-18.6 119.5,-32.52 184.5,-41.77 120.5,-18.6 241.2,-11.64 361.9,20.88 69.6,23.17 136.8,49.82 201.9,80.06 64.9,30.12 127.6,70.69 187.9,121.81 111.4,88.1 206.4,201.86 285.4,341.08 37.1,55.7 69.7,114.86 97.5,177.51 27.9,62.64 55.7,131.05 83.5,205.34 13.9,32.42 31.3,75.39 52.2,128.78 20.9,53.29 35.9,98.54 45.3,135.74 9.2,27.85 18.5,59.17 27.8,93.97 9.3,34.8 18.5,66.12 27.8,93.97 14,-23.27 30.1,-47.63 48.8,-73.09 18.5,-25.55 32.4,-52.2 41.8,-80.05" /></g><g
         transform="scale(1.18833)"
         id="g24"><path
           id="path26"
           style="fill:#100f0d;fill-opacity:1;fill-rule:nonzero;stroke:none"
           d="m 14946,4313.56 c -32.1,103.91 -68.9,203.71 -110.9,299.56 -41.9,95.87 -90.9,189.76 -146.8,281.59 -11.9,19.94 -25,48.87 -38.9,86.87 -14,37.91 -30,75.83 -47.9,113.84 -18,37.9 -36,73.86 -54,107.84 -17.9,33.88 -36.9,56.92 -56.8,68.9 0,-75.92 0.9,-158.77 2.9,-248.63 2,-89.88 3,-181.72 3,-275.6 0,-93.8 0,-185.74 0,-275.6 0,-89.87 0,-172.72 0,-248.68 0,-167.71 2,-330.38 6,-488.24 4,-157.7 24,-318.52 59.9,-482.28 15.9,-67.91 24,-136.74 24,-206.76 0,-69.76 6,-138.68 17.9,-206.67 0,-7.91 9,-41.91 27,-101.83 18,-59.91 37.9,-120.75 60,-182.77 21.8,-61.86 43.8,-114.7 65.8,-158.71 21.9,-43.93 39,-49.9 51,-18.01 27.9,79.94 54.8,168.81 80.8,266.59 25.9,97.95 48,197.76 65.9,299.58 18,101.82 32,203.73 42,305.55 9.9,101.83 15,196.75 15,284.61 v 257.58 c 3.9,91.98 0.9,180.85 -9,266.68 -10,85.92 -29,170.72 -56.9,254.59 z m -491.3,1443.88 c 3.9,3.93 20,16.95 47.9,38.95 27.9,21.91 61.9,48.87 101.8,80.89 39.9,31.92 78.9,65.89 116.9,101.84 37.9,35.95 68.9,69.83 92.8,101.85 139.8,207.64 251.6,435.3 335.5,683 20,59.92 39.9,130.78 60,212.69 19.9,81.82 37.9,165.69 53.9,251.64 15.9,85.83 29,171.68 39,257.62 9.9,85.84 16.9,160.73 20.9,224.67 15.9,227.66 15.9,457.29 0,688.98 -4,35.96 -13,77.9 -27,125.81 -14,47.94 -32.9,87.82 -56.9,119.84 -24,31.92 -50.9,46.9 -80.8,44.93 -30,-2.06 -59,-38.93 -86.9,-110.83 -16,-32.03 -29,-65.91 -39,-101.85 -10,-35.96 -19,-73.96 -27,-113.84 -43.9,-203.71 -87.8,-399.45 -131.7,-587.14 -44.1,-187.79 -93.9,-383.43 -149.8,-587.14 -44,-139.86 -75.9,-268.67 -95.9,-386.43 -20,-117.87 -45.9,-248.64 -77.8,-392.42 -24,-111.88 -50,-222.71 -78,-332.52 -28,-109.9 -33.9,-216.72 -17.9,-320.54 z m 1767.4,832.79 c 3.9,0 18,-5.99 42,-17.97 23.9,-11.98 35.9,-22.02 35.9,-29.96 l -77.9,-209.7 c -23.9,-63.94 -50.9,-125.81 -80.9,-185.72 -30,-59.91 -60.9,-117.86 -92.8,-173.75 -20.1,-35.95 -42,-73.95 -66,-113.83 -23.9,-39.97 -47.9,-75.92 -71.9,-107.84 -11.9,-16.01 -23,-32.03 -32.9,-47.93 -10.1,-16.01 -23,-29.96 -38.9,-41.94 -24,-20.03 -48,-42.97 -72,-68.9 -23.9,-26.02 -50,-48.96 -77.8,-68.9 -12,-11.98 -27,-23.96 -44.9,-35.95 -18.1,-11.98 -33,-22 -45,-29.95 -87.9,-55.98 -177.8,-95.86 -269.6,-119.82 -79.9,-23.97 -163.8,-35.95 -251.6,-35.95 -28,0 -55,0.92 -80.9,2.99 -26,1.96 -50.9,4.96 -74.9,8.99 -35.9,7.95 -68.9,15.91 -98.9,23.97 -29.9,7.95 -60.9,15.9 -92.8,23.96 7.9,-11.99 9.9,-20.04 6,-23.96 3.9,-11.99 19.9,-32.96 47.9,-62.91 27.9,-29.96 57.9,-62.92 89.9,-98.87 31.9,-35.94 60.8,-69.92 86.8,-101.84 26,-32.02 42.9,-51.95 51,-59.91 23.9,-39.98 45.9,-72.93 65.9,-98.86 19.9,-25.93 37.9,-52.89 53.9,-80.88 15.9,-27.91 33.9,-59.91 53.9,-95.87 19.9,-35.94 42,-83.86 65.9,-143.78 27.9,-67.87 46.9,-135.74 56.9,-203.7 10,-67.87 25,-135.74 45,-203.73 7.9,-23.98 15.9,-47.88 24,-71.86 7.9,-23.99 15.9,-49.9 23.9,-77.93 8,-31.89 12.9,-65.89 14.9,-101.82 2.1,-35.94 11.1,-69.85 27.1,-101.82 7.9,-19.95 9.9,-39.89 5.9,-59.92 -4,-19.95 -5.9,-39.89 -5.9,-59.92 3.9,-71.86 4.9,-143.81 2.9,-215.68 -2,-71.95 -8.9,-143.81 -21,-215.68 -8,-63.87 -17.9,-125.8 -29.9,-185.72 -12,-59.92 -24,-119.83 -35.9,-179.75 -8.1,-55.87 -19.1,-110.83 -32.9,-164.77 -14.1,-53.94 -33,-104.85 -57,-152.73 l -54,-107.88 -17.9,-35.94 c -20,-63.87 -41,-125.8 -62.9,-185.72 -22,-59.92 -42.9,-119.83 -62.9,-179.75 -12,-19.94 -20,-31.98 -24,-35.93 l -24,-23.98 c -20,-23.99 -52.9,-42.92 -98.8,-56.89 -46,-13.97 -98.8,-23.98 -158.7,-29.96 -60,-6.06 -122,-9 -185.8,-9 -63.9,0 -125.8,2.02 -185.7,5.97 l -6.1,35.93 c -3.9,4.04 -10,5.98 -17.9,5.98 -63.9,28.02 -123.8,67.99 -179.7,119.83 -56,52.01 -107.9,108.9 -155.8,170.75 -48,62.02 -89.9,127.9 -125.8,197.75 -35.9,69.93 -65.9,134.81 -89.9,194.73 -68,159.8 -121.9,323.48 -161.7,491.28 -40,167.71 -72,335.51 -95.9,503.22 -23.9,171.75 -46,342.58 -65.9,512.23 -20.1,169.84 -34,340.6 -41.9,512.28 -12.1,191.72 -12.1,383.44 0,575.16 11.9,187.69 26.9,373.42 44.9,557.18 17.9,183.67 36.9,369.39 56.9,557.18 27.9,239.65 63.9,477.24 107.9,712.96 43.8,235.63 103.7,467.31 179.7,694.98 7.9,31.92 17.9,63.84 30,95.85 11.9,31.93 21.9,63.85 29.8,95.86 36.1,107.85 79.9,218.69 131.9,332.52 51.8,113.83 114.8,218.67 188.8,314.54 73.8,95.86 159.6,177.69 257.6,245.64 97.7,67.87 208.6,107.85 332.4,119.83 32,7.95 66.9,10.95 104.9,8.99 37.9,-2.07 74.9,-5.07 110.8,-8.99 43.9,-8.05 79.9,-14.04 107.9,-17.98 27.9,-4.03 55.9,-8.98 83.9,-14.97 27.9,-5.99 47.9,-11.05 59.9,-14.99 59.9,-23.96 107.8,-56.91 143.7,-98.85 36,-41.94 63.9,-90.9 83.9,-146.78 20,-55.99 35,-116.84 45,-182.74 9.9,-65.89 18.9,-136.86 26.9,-212.68 20,-131.81 27,-261.66 21,-389.44 -6,-127.87 -19,-255.66 -38.9,-383.44 -4.1,-15.99 -6,-30.98 -6,-44.92 0,-14.05 -2.1,-26.97 -6,-38.95 -20.1,-123.85 -38,-235.73 -53.9,-335.51 -16.1,-99.89 -37,-197.71 -63,-293.56 -26,-95.86 -59.9,-196.78 -101.8,-302.56 -42,-105.88 -96.9,-226.73 -164.7,-362.47 -12,-16.01 -24,-32.02 -36,-47.93 -12,-16.01 -24,-33.98 -35.9,-53.93 -32.1,-39.97 -64,-76.94 -95.9,-110.83 -32,-33.98 -70,-70.97 -113.8,-110.84 -16.1,-16 -46,-44.93 -89.9,-86.88 -44,-41.94 -86,-84.91 -125.8,-128.8 39.8,-20.04 84.7,-38.01 134.7,-53.92 49.9,-16.01 102.9,-27.99 158.8,-35.95 103.9,-16.01 207.6,-10.02 311.6,17.97 59.9,19.95 117.8,42.88 173.7,68.9 55.9,25.93 109.8,60.85 161.8,104.85 95.8,75.82 177.7,173.74 245.6,293.56 32,47.94 59.9,98.87 83.9,152.79 24,53.91 48,112.79 71.9,176.73 12,27.9 27,64.88 44.9,110.84 18,45.87 30.9,84.82 39,116.84 8,23.96 15.9,50.92 24,80.87 7.9,29.95 15.9,56.91 23.9,80.88 12,-20.02 26,-41 41.9,-62.91 15.9,-21.99 27.9,-44.93 36,-68.89" /></g><path
         id="path28"
         style="fill:#100f0d;fill-opacity:1;fill-rule:nonzero;stroke:none"
         d="M 3245.04,0 C 3223.15,0 3201.5,9.80078 3186.99,28.3008 2774.19,557 2413.63,1106.2 2115.31,1660.8 c -324.93,604 -586.35,1233.3 -776.99,1870.6 -205.11,685.7 -334.47,1401.1 -384.476,2126.3 -53.309,773.13 -18.008,1580.06 104.906,2398.37 116.16,773.21 330.91,1519.77 638.31,2218.93 275.52,626.7 634.29,1235 1066.33,1807.9 686.45,910.4 1553.25,1742.7 2727.87,2619.2 32.57,24.4 78.68,17.7 102.99,-14.9 24.3,-32.6 17.6,-78.7 -14.96,-103 -1163.14,-868 -2020.57,-1691 -2698.39,-2589.9 C 2455.7,11430.4 2102.73,10832 1831.78,10215.8 1529.63,9528.53 1318.51,8794.54 1204.3,8034.2 1082.96,7226.46 1048.1,6430.3 1100.67,5667.83 1149.93,4953.4 1277.33,4248.8 1479.33,3573.6 1667.11,2945.8 1924.69,2325.7 2244.92,1730.5 2539.31,1183.3 2895.3,641.102 3302.99,118.902 3328,86.9023 3322.31,40.7031 3290.28,15.6016 3276.83,5.10156 3260.87,0 3245.04,0" /><path
         id="path30"
         style="fill:#100f0d;fill-opacity:1;fill-rule:nonzero;stroke:none"
         d="m 4220.88,14569.6 c -14.02,0 -32.96,-3.2 -55.15,-28.1 -43.08,-48.3 -115.05,-197.3 -112.98,-652.7 0.63,-140 8.38,-273.2 15.72,-369.2 339.11,337.1 446.8,699.3 371.82,902.1 -35.78,96.7 -111.65,147.9 -219.41,147.9 z m -269.53,-1351.1 -15.76,137.6 c -11.93,104.2 -109.89,1025.3 120.3,1283.4 45.1,50.5 102.15,77.3 164.99,77.3 169.82,0 300.1,-89 357.45,-244.1 96.99,-262.3 -24.91,-738.4 -521.75,-1164.1 l -105.23,-90.1" /><path
         id="path32"
         style="fill:#100f0d;fill-opacity:1;fill-rule:nonzero;stroke:none"
         d="m 3997.2,13253.3 h 0.1 z m 157.69,34.3 c 242.19,-56.7 638.5,-114.1 829,3.8 59.67,37 94.3,88.6 105.86,158 15.54,93.3 -2.55,155.2 -53.79,184.2 -71.3,40.2 -204.42,27.1 -365.23,-36 -159.06,-62.3 -335.48,-168.5 -515.84,-310 z m 498.05,-212.7 c -82.15,0 -172.48,6.8 -270.81,20.6 -220.41,30.8 -399.02,85.2 -406.52,87.5 l -127.84,39.2 101.56,87 c 473.04,405.3 927.96,582.9 1158.96,452.5 62.37,-35.2 161.76,-125.7 126.63,-336.5 -18.69,-112.1 -77.12,-199.3 -173.68,-259 -98.34,-60.8 -235.11,-91.3 -408.3,-91.3" /><path
         id="path34"
         style="fill:#100f0d;fill-opacity:1;fill-rule:nonzero;stroke:none"
         d="m 2710.52,13119.5 c -4.77,0 -9.45,-0.3 -14.04,-0.7 -75.45,-7.6 -129.34,-48.7 -164.73,-125.6 -102.54,-222.8 -23.36,-688.2 161.71,-1015.5 141.58,274.6 226.73,854.1 110.19,1073.6 -29.99,56.5 -63.1,68.2 -93.13,68.2 z m -23.23,-1400 -55.15,79.2 c -230.84,331.4 -379.99,939 -234.09,1256.1 57.45,124.8 155.57,197.6 283.77,210.4 107.08,10.7 196.51,-40.7 251.82,-144.9 107.1,-201.7 67.46,-548.7 45.46,-688.5 -33.97,-215.8 -112.23,-496.7 -230.03,-638.1 l -61.78,-74.2" /><path
         id="path36"
         style="fill:#100f0d;fill-opacity:1;fill-rule:nonzero;stroke:none"
         d="m 2836.42,11902.9 c 267.5,-84.4 608.33,-73.1 763.08,31.6 53.05,35.9 78.83,78.9 78.82,131.4 -0.01,112.8 -120.3,172.9 -223.3,190.1 -212.5,35.4 -486.69,-62.2 -618.6,-353.1 z m 377.52,-203.1 c -174.39,0 -356.56,33 -501.32,91.1 l -64.93,26 22.72,66.2 c 66.68,194.1 188.98,345 353.67,436.1 139.25,77.1 305.16,107 455.16,81.9 210.33,-35.1 346.24,-166.7 346.26,-335.2 0.01,-102.2 -49.62,-189.8 -143.53,-253.3 -105.53,-71.4 -268.3,-111.4 -458.35,-112.8 -3.22,0 -6.45,0 -9.68,0" /><path
         id="path38"
         style="fill:#100f0d;fill-opacity:1;fill-rule:nonzero;stroke:none"
         d="m 1354.09,11050.3 c -14.35,0 -31.08,-2.9 -50.77,-10.1 -67.27,-24.5 -91.44,-110 -99.87,-177.5 -31.36,-250.7 99.89,-651.4 321.18,-870.31 29.65,185.71 40.77,390.61 29.91,568.81 -14.13,231.6 -63.73,400.6 -136.09,463.6 -14.62,12.8 -34.29,25.5 -64.36,25.5 z m 268.8,-1316.62 -90.33,61.57 c -322.19,219.65 -516.59,754.35 -475.15,1085.75 19.12,152.9 88.56,258.5 195.52,297.5 124.27,45.3 211.19,1.8 262.22,-42.7 235.57,-205.3 217.31,-894.3 130.8,-1295.27 l -23.06,-106.85" /><path
         id="path40"
         style="fill:#100f0d;fill-opacity:1;fill-rule:nonzero;stroke:none"
         d="m 1708.46,10004.8 c 205.33,-60.35 481.68,-55.51 668.95,71.2 122.36,82.8 184.41,204.8 184.41,362.6 0,38.1 -10.88,83.7 -95.72,97.8 -205.51,34.3 -594.49,-160.4 -757.64,-531.6 z m 268.1,-184.81 c -143.68,0 -282.45,28.09 -391.82,71.95 l -64.94,26.04 22.72,66.16 c 76.32,222.26 228.82,417.56 429.42,550.06 176.98,116.9 370.75,172.1 518.4,147.4 136.92,-22.9 218.66,-113.7 218.66,-243 0,-206.7 -86.15,-374.3 -249.13,-484.53 -141.76,-95.89 -315.87,-134.08 -483.31,-134.08" /><path
         id="path42"
         style="fill:#100f0d;fill-opacity:1;fill-rule:nonzero;stroke:none"
         d="m 629.07,8664.77 c -37.773,0 -67.269,-16.57 -89.754,-33.13 -45.914,-33.79 -34.914,-121.88 -24.269,-171.38 56.344,-262.04 320.68,-610.32 521.143,-704.73 62.67,234.83 -73.588,677.13 -275.616,849.73 -52.035,44.45 -95.519,59.51 -131.504,59.51 z m 489.82,-1085.42 -54.93,11.77 C 885.73,7629.28 719.105,7811.38 635.648,7916.53 503.191,8083.4 404.32,8275.1 371.16,8429.32 c -40.086,186.45 21.871,277.39 80.91,320.85 124.754,91.85 272.051,79.81 404.106,-33.01 123.707,-105.69 234.244,-298.94 295.694,-516.93 64.63,-229.28 62.02,-437.41 -7.15,-571 l -25.83,-49.88" /><path
         id="path44"
         style="fill:#100f0d;fill-opacity:1;fill-rule:nonzero;stroke:none"
         d="m 1768.43,8506.09 c -16.06,0 -32.38,-2.61 -46.96,-6.06 -281.44,-66.66 -484.52,-432.95 -550.78,-723.27 368.08,89.04 635.31,246.32 708.57,421.04 37.03,88.3 23.7,178.77 -40.74,276.56 -15.87,24.09 -42.6,31.73 -70.09,31.73 z m -773.989,-916.3 11.849,100.31 c 36.05,305.28 162.84,521.55 262.86,649.21 125.21,159.83 277.71,270.61 418.41,303.93 118.69,28.12 218.51,-3.92 273.86,-87.9 90.89,-137.94 109.42,-281.26 53.56,-414.46 -100.3,-239.2 -444.76,-437.94 -921.42,-531.61 l -99.119,-19.48" /><path
         id="path46"
         style="fill:#100f0d;fill-opacity:1;fill-rule:nonzero;stroke:none"
         d="m 277.047,6401.69 c -29.758,0 -55.984,-11.25 -81.652,-34.37 -41.918,-37.76 -56.278,-88.74 -43.907,-155.86 40.157,-217.89 366.473,-567.25 794.469,-773.37 -143.711,464.21 -417.992,892.61 -624.453,956.26 -15.797,4.87 -30.52,7.34 -44.457,7.34 z m 885.823,-1211.75 -131.43,50.78 C 526.402,5435.87 66.7266,5859.37 6.75391,6184.78 c -21.78911,118.21 9.37889,219.14 90.13669,291.89 76.2574,68.71 168.9184,88.86 267.9724,58.32 313.676,-96.7 641.107,-702.42 764.587,-1208.18 l 33.42,-136.87" /><path
         id="path48"
         style="fill:#100f0d;fill-opacity:1;fill-rule:nonzero;stroke:none"
         d="m 1508.55,6291.67 c -38.8,0 -75.02,-9.49 -108.48,-28.5 -173.91,-98.84 -283.7,-448.51 -273.45,-851.61 100.02,47.6 225.23,141.01 341.73,257.34 156.52,156.3 267.95,323.47 290.79,436.27 14.69,72.59 -12.38,91.49 -23.94,99.56 -82.96,57.91 -158.78,86.94 -226.65,86.94 z m -517.898,-1071.88 -6.086,84.27 c -16.531,228.58 3.579,458.75 56.614,648.11 60.22,214.99 159.18,366.78 286.18,438.95 100.08,56.87 266.69,91.64 492.08,-65.71 44,-30.71 113.4,-103.95 83.94,-249.45 -60.2,-297.32 -533.43,-775.38 -830.09,-838.57 l -82.638,-17.6" /><path
         id="path50"
         style="fill:#100f0d;fill-opacity:1;fill-rule:nonzero;stroke:none"
         d="m 797.352,3770.6 c -49.442,0 -94.973,-25.1 -138.875,-76.3 -100.325,-117.1 32.437,-276.2 94.168,-339.2 185.585,-189.3 510.345,-327.8 691.505,-258.4 -154.03,242.3 -424.53,658.3 -636.119,673.5 -3.578,0.2 -7.136,0.4 -10.679,0.4 z M 1333.8,2931.5 c -68.74,0 -143.87,12.4 -223.4,37.5 -167.877,52.9 -340.904,158.7 -462.853,283.1 -187.707,191.5 -225.399,392.6 -100.82,538 78.414,91.5 169.836,134.1 271.804,126.9 292.399,-20.9 576.439,-468.3 764.399,-764.3 l 61.15,-96 -50.33,-41.4 c -67.58,-55.7 -156.53,-83.8 -259.95,-83.8" /><path
         id="path52"
         style="fill:#100f0d;fill-opacity:1;fill-rule:nonzero;stroke:none"
         d="m 1877.36,3978.1 c -36.45,0 -80,-14.7 -120.95,-42.6 -207.93,-141.8 -219.87,-448.9 -161.94,-701.1 356.77,191.5 448.37,360.7 460.32,471.9 14.22,132.3 -79.01,221.9 -119.76,254.2 -14.85,11.8 -34.87,17.6 -57.67,17.6 z m -375.4,-955 -25.32,82.6 c -152.79,498.3 1.5,818.2 196.84,951.4 123.11,83.9 261.71,91.3 353.09,18.7 126.44,-100.5 190.07,-240.9 174.55,-385.2 -24.36,-226.7 -233.51,-438.4 -621.65,-629.3 l -77.51,-38.2" /><path
         id="path54"
         style="fill:#100f0d;fill-opacity:1;fill-rule:nonzero;stroke:none"
         d="m 1627.43,1439.4 c -13.69,0 -26.77,-0.5 -39.17,-1.5 -81.4,-6.3 -120.96,-30.7 -130.83,-51.5 -26.78,-56.2 -19.78,-99.6 23.38,-145 79.15,-83.3 264.78,-150.7 496.56,-180.3 160.5,-20.5 321.6,-19.2 436.5,1.3 -227.54,263.3 -577.46,377 -786.44,377 z m 574.5,-539.998 c -303.93,0 -672.54,77.301 -827.8,240.598 -84.65,89.1 -102.26,199.1 -49.57,309.7 26.01,54.6 90.9,122.4 252.29,134.9 151.91,11.9 342.72,-29.3 523.53,-112.8 146.11,-67.5 351.28,-193.3 499,-409.3 L 2650.5,987.703 2566.86,953 c -85.22,-35.398 -217.49,-53.598 -364.93,-53.598" /><path
         id="path56"
         style="fill:#100f0d;fill-opacity:1;fill-rule:nonzero;stroke:none"
         d="m 2767.45,2086.7 c -60.66,0 -115.35,-50.6 -153.8,-99 -181.39,-228.4 -196.6,-576.7 -94.23,-743.2 134.3,26.8 339.41,249.3 403.8,493.2 30.33,114.8 36.66,266.5 -105.4,336.8 -17.09,8.5 -33.95,12.2 -50.37,12.2 z m -274.09,-992.1 c -4.75,0 -9.44,0.2 -14.17,0.4 l -32.19,1.9 -20.48,24.9 c -95.99,116.7 -135.6,290.8 -111.54,490.3 21.04,174.4 89.61,349 183.42,467.1 115.08,144.9 255.28,191.3 384.71,127.2 177.67,-87.9 244.15,-272.5 182.41,-506.3 -75.27,-285 -338.88,-605.5 -572.16,-605.5" /><g
         transform="scale(1.42321)"
         id="g58"><path
           id="path60"
           style="fill:#100f0d;fill-opacity:1;fill-rule:nonzero;stroke:none"
           d="m 14448,174.537 c -11.6,0 -23.3,3.864 -32.9,11.805 -22.1,18.197 -25.1,50.73 -7,72.791 618.7,750.627 1059,1484.047 1345.8,2242.047 170.8,451.23 291.2,923.62 357.9,1404.17 72.8,523.73 84.5,1076.67 35,1643.44 -94.3,1078.17 -417.4,2056.76 -960.5,2908.6 -489.4,767.78 -1162.4,1441.27 -1999.9,2001.71 -23.7,15.9 -30.1,48 -14.3,71.8 15.9,23.7 48,30.1 71.8,14.2 849.5,-568.5 1532.4,-1252.2 2029.6,-2032.12 552.1,-866.01 880.6,-1860.28 976.3,-2955.19 50.2,-574.5 38.3,-1135.25 -35.5,-1666.66 -67.8,-488.18 -190.2,-968.16 -363.6,-1426.56 -291,-768.75 -736.8,-1511.722 -1362.8,-2271.202 -10.3,-12.439 -25,-18.831 -39.9,-18.831" /></g><g
         transform="scale(1.29583)"
         id="g62"><path
           id="path64"
           style="fill:#100f0d;fill-opacity:1;fill-rule:nonzero;stroke:none"
           d="m 15942.6,11288.9 c -70.2,0 -115.5,-63.7 -142.1,-121.3 -90.8,-196.5 -73.2,-582.8 149.4,-774.1 116.7,110.4 230.1,436.5 194.8,667.8 -19,124.5 -76.4,199.8 -170.6,223.6 -11,2.7 -21.5,4 -31.5,4 z m 4.7,-1035.2 -30.6,21.7 c -304.8,216.7 -333.2,693.4 -219.3,939.8 66.4,143.9 180.3,211.2 304.5,179.8 138.7,-35 229.3,-147.5 255.1,-316.6 43,-282.2 -99.8,-696.1 -277.7,-805.1 l -32,-19.6" /></g><g
         transform="scale(1.27528)"
         id="g66"><path
           id="path68"
           style="fill:#100f0d;fill-opacity:1;fill-rule:nonzero;stroke:none"
           d="m 15394.3,10679.4 c -58.8,0 -107.6,-9.3 -144.4,-27.9 -75.7,-38.2 -84.5,-111.6 -84.5,-163.4 0,-33.6 9.3,-82.6 88.9,-119.7 200.1,-93.4 644,-22 846,77.5 -96.5,58.1 -236.8,125.4 -388.4,174 -123.2,39.5 -231.2,59.5 -317.6,59.5 z m 122.5,-470.5 c -118.4,0 -228.5,16.2 -311.3,54.9 -128.5,59.9 -155.5,155 -155.5,224.3 0,158.5 80.4,232.3 147.8,266.4 151.6,76.6 382.4,28.9 549.3,-24.7 180,-57.7 378.5,-153.6 493.9,-238.5 l 59,-43.6 -56.1,-47.1 c -120,-100.6 -446.7,-191.7 -727.1,-191.7" /></g><g
         transform="scale(1.3826)"
         id="g70"><path
           id="path72"
           style="fill:#100f0d;fill-opacity:1;fill-rule:nonzero;stroke:none"
           d="m 16009.2,9150.4 c -70,0 -118.8,-56.46 -143.5,-94.15 -94.8,-143.99 -106.5,-396 25.9,-591.83 199.4,184.98 290.1,425.89 261.9,563.51 -12.6,61.45 -46.8,99.57 -104.6,116.53 -13.8,4.1 -27.1,5.94 -39.7,5.94 z m -132.7,-838.59 -33.9,40.81 c -118.8,143.08 -149.6,298.18 -154.6,403.1 -6.1,133.06 26.1,263.91 88.7,359.02 76.2,115.82 189.2,165.12 302.3,131.85 94.9,-27.9 158.4,-97.97 178.8,-197.29 42.2,-206.15 -104.1,-508.67 -340.3,-703.71 l -41,-33.78" /></g><g
         transform="scale(1.3534)"
         id="g74"><path
           id="path76"
           style="fill:#100f0d;fill-opacity:1;fill-rule:nonzero;stroke:none"
           d="m 15636.2,8814.15 c -53.3,0 -104.1,-6.6 -150.1,-19.31 -96.8,-26.83 -156.9,-78.53 -160.6,-138.33 -1.6,-25.83 19.3,-50.41 62.4,-73.07 172.1,-90.64 579.6,-85.71 758.6,-0.78 -134.1,160.02 -335,231.49 -510.3,231.49 z m 121.4,-406.24 c -160.1,0 -318.6,25.69 -420.4,79.32 -105,55.3 -123.4,126.25 -120.3,176.02 6.8,108.25 96.5,196.61 240.2,236.38 247.1,68.44 616.4,-13.91 813.9,-301.28 l 29,-42.15 -40.3,-31.49 c -97.8,-76.39 -301.3,-116.8 -502.1,-116.8" /></g><g
         transform="scale(1.43509)"
         id="g78"><path
           id="path80"
           style="fill:#100f0d;fill-opacity:1;fill-rule:nonzero;stroke:none"
           d="m 16074.2,7389.75 c -29.7,0 -57.5,-11.66 -83.8,-35.08 -117.6,-104.71 -146.1,-358.41 -105.1,-560.73 156.8,119.6 309.7,339.32 299.9,494.52 -3.7,59.6 -32.6,78.95 -54.1,88.32 -19.8,8.63 -38.8,12.97 -56.9,12.97 z m -250.7,-756.87 -19.1,62.6 c -84.6,278.48 -32.9,601.68 117.9,735.8 72.1,64.27 160.9,78.29 249.8,39.5 69.3,-30.23 110.3,-92.7 115.5,-175.91 12.4,-198.27 -178.2,-491.99 -407.9,-628.56 l -56.2,-33.43" /></g><g
         transform="scale(1.4009)"
         id="g82"><path
           id="path84"
           style="fill:#100f0d;fill-opacity:1;fill-rule:nonzero;stroke:none"
           d="m 15434.3,7187.06 c -13.7,-34.84 -32.3,-112.27 85.6,-193.69 189,-130.55 538.5,-155.25 657.3,-99.03 -59.3,141.01 -192.1,215.51 -297.1,253.72 -200.5,72.88 -401.2,58.21 -445.8,39 z m 564,-426.19 c -39.7,0 -75,2.42 -99.7,4.75 -169.7,16.04 -333.6,68.86 -438.4,141.31 -129.9,89.71 -171.9,207.42 -118.3,331.47 30.5,70.51 186.8,72.69 277.3,67.71 267.2,-14.69 583.9,-131.82 671.4,-416.55 l 9.4,-30.75 -23.1,-22.39 c -63.7,-61.75 -183.9,-75.55 -278.6,-75.55" /></g><g
         transform="scale(1.47036)"
         id="g86"><path
           id="path88"
           style="fill:#100f0d;fill-opacity:1;fill-rule:nonzero;stroke:none"
           d="m 16098.6,5692.48 c -17,0 -36.1,-5.85 -57.7,-17.36 -156,-83.11 -309.1,-391.92 -285.2,-551.49 147,46.13 341.2,214.38 408.4,361.2 30,65.42 32.7,118.33 8.1,157.3 -21.3,33.84 -44.8,50.35 -73.6,50.35 z m -408.1,-683.51 -15.4,34.95 c -42.2,95.38 -23.6,240.77 50.9,398.88 69.1,146.57 171.7,269.44 267.8,320.65 104.8,55.78 200.6,31.03 263,-67.88 43.2,-68.4 42.7,-155.67 -1.6,-252.39 -88.3,-192.86 -344.4,-401.12 -527,-428.54 l -37.7,-5.67" /></g><g
         transform="scale(1.42147)"
         id="g90"><path
           id="path92"
           style="fill:#100f0d;fill-opacity:1;fill-rule:nonzero;stroke:none"
           d="m 15771.4,5870.37 c -37,0 -67.7,-17.93 -93.2,-54.21 -44.1,-62.87 -53.2,-127 -27.9,-196.07 54.5,-148.61 268.7,-301.83 533.3,-386.2 -20.5,150.14 -68.8,293.55 -138.8,410.21 -70.1,116.8 -158.5,199.37 -236.3,220.87 -13,3.6 -25.4,5.4 -37.1,5.4 z m 528.6,-776.02 -70,18.32 c -154.1,40.34 -304.1,106.05 -422.3,185.02 -129.5,86.57 -217.5,185.73 -254.5,286.75 -36.9,100.4 -22.9,201.09 40.3,291.19 58.4,83.11 146.8,115.61 242.6,89.13 200.7,-55.43 427.2,-369.16 458.6,-798.23 l 5.3,-72.18" /></g><g
         transform="scale(1.47055)"
         id="g94"><path
           id="path96"
           style="fill:#100f0d;fill-opacity:1;fill-rule:nonzero;stroke:none"
           d="m 16091.7,4231.57 c -8.5,0 -17.3,-1.12 -26.4,-3.33 -125.2,-30.26 -283,-247.59 -385.6,-522.35 270.2,103.12 484.8,261.7 516.3,387.84 9.8,39.43 0.4,72.05 -29.6,102.63 -23.2,23.69 -47.4,35.21 -74.7,35.21 z m -568.9,-683.42 28.5,91.5 c 91.8,295.43 284.5,636.08 490.5,685.87 73,17.66 140.8,-2.78 196.1,-59.09 54.3,-55.47 73.5,-123.55 55.2,-196.9 -28.8,-115.57 -143.7,-216.05 -235.1,-279.99 -120.9,-84.64 -278.6,-160.09 -443.8,-212.45 l -91.4,-28.94" /></g><g
         transform="scale(1.41401)"
         id="g98"><path
           id="path100"
           style="fill:#100f0d;fill-opacity:1;fill-rule:nonzero;stroke:none"
           d="m 15794.6,4388.29 c -33.5,0 -67.3,-11.49 -95,-44.74 -21.7,-25.96 -26.3,-55.62 -14.5,-93.35 22.9,-73.65 106.6,-167.91 229.8,-258.61 85.5,-63.03 181.9,-118.19 261.5,-150.64 3.3,132.2 -38.9,239.5 -78,309.81 -55.8,100.16 -138.1,181.55 -220.3,217.72 -24.6,10.86 -54,19.81 -83.5,19.81 z m 471.8,-684.73 -57.6,16.04 c -99.5,27.75 -235.8,99.85 -355.7,188.19 -100.9,74.35 -229.2,188.73 -267.4,311.45 -22.3,71.56 -10.6,137.6 34,190.97 70.9,85.08 183.1,105.09 300.3,53.54 103.8,-45.66 201.9,-141.3 269.3,-262.39 53,-95.16 110.7,-248.5 85.1,-438.58 l -8,-59.22" /></g><g
         transform="scale(1.44649)"
         id="g102"><path
           id="path104"
           style="fill:#100f0d;fill-opacity:1;fill-rule:nonzero;stroke:none"
           d="m 15525.9,2247.44 c 52.8,-29.86 138.4,-29.24 240.7,2.77 115.4,36.01 235.8,107.64 314.4,186.86 48.1,48.6 119.7,139.65 58.7,204.01 -42.2,44.38 -117.1,33.53 -172.6,16.59 -168.8,-51.57 -392.1,-240.44 -441.2,-410.23 z m 97.3,-123.33 c -73.6,0 -139.8,19.29 -189,65.05 l -19.9,18.67 4.5,26.96 c 36.6,218.18 304,454.62 518.6,520.15 117.2,35.81 215.2,20.26 276,-43.83 86.6,-91.11 64.1,-220.32 -60.2,-345.66 -123.4,-124.58 -349,-241.34 -530,-241.34" /></g><g
         transform="scale(1.38207)"
         id="g106"><path
           id="path108"
           style="fill:#100f0d;fill-opacity:1;fill-rule:nonzero;stroke:none"
           d="m 15996,3166.4 c -2,0 -3.9,-0.21 -5.8,-0.58 -49.6,-10.34 -73.8,-56.51 -85.5,-93.48 -61.9,-196.3 65.1,-481.38 235.9,-691.21 62.1,229.15 74.6,563.36 -77.9,741.43 -23.9,27.93 -48.3,43.84 -66.7,43.84 z m 186.3,-989.96 -58.6,62.23 c -136.6,145.28 -238.2,308.66 -293.9,472.33 -50.4,148.4 -59.9,288.12 -26.7,393.39 28.6,90.59 87.4,149.42 165.4,165.7 59.2,12.23 121.4,-15.56 175.1,-78.29 71.7,-83.79 123.3,-221.05 141.5,-376.68 14.9,-127.06 14.3,-327.12 -72.7,-558.73 l -30.1,-79.95" /></g><g
         transform="scale(1.37404)"
         id="g110"><path
           id="path112"
           style="fill:#100f0d;fill-opacity:1;fill-rule:nonzero;stroke:none"
           d="m 15517.3,897.571 c 166.3,-38.791 460.4,-13.683 591.2,100.871 59.7,52.398 75.9,116.228 49.4,195.048 -1.4,4 -5.5,16.15 -36.6,21.47 -116.8,19.87 -402.4,-96.58 -604,-317.389 z m 172.2,-124.595 c -114.7,0 -220,18.484 -287,51.308 l -59.2,28.966 40.5,51.963 c 99.3,127.507 237,241.627 387.8,321.387 142.5,75.25 276.4,109.46 367.8,93.88 60.7,-10.33 103.3,-43.3 120,-92.86 40.6,-120.88 12.9,-228.015 -80.4,-309.745 -115.8,-101.523 -313.7,-144.899 -489.5,-144.899" /></g><g
         transform="scale(1.31749)"
         id="g114"><path
           id="path116"
           style="fill:#100f0d;fill-opacity:1;fill-rule:nonzero;stroke:none"
           d="m 16039.8,1858.08 c -8.3,0 -14.8,-2.73 -19.4,-4.71 -105.3,-44.25 -128.8,-176.93 -130,-280.38 -2.8,-239.09 103.8,-501.18 187.6,-587.176 61.6,89.716 100.1,235.066 104.7,401.296 4.8,174.65 -29.7,346.94 -86,428.77 -23.6,34.08 -42.8,42.2 -56.9,42.2 z m 61.6,-1015.341 -36,16.09 c -145.4,65.048 -290,426.111 -286.7,715.451 2.2,196.36 70.8,328.51 198.3,382.02 78.2,32.86 155.3,4.7 211.7,-77.12 70.8,-102.85 111.3,-292.53 105.7,-495.11 -6.2,-222.09 -66.6,-408.96 -165.8,-512.868 l -27.2,-28.463" /></g></g></g></svg>